<?xml version="1.0" encoding="utf-8"?>
<!-- Generator: Adobe Illustrator 23.0.1, SVG Export Plug-In . SVG Version: 6.00 Build 0)  -->
<svg version="1.1" id="Layer_1" xmlns="http://www.w3.org/2000/svg" xmlns:xlink="http://www.w3.org/1999/xlink" x="0px" y="0px"
	 viewBox="0 0 250 60" style="enable-background:new 0 0 250 60;" xml:space="preserve">
<style type="text/css">
	.st0{fill:#17244C;}
	.st1{fill:#231F1C;}
	.st2{fill:#7C7D7D;}
	.st3{fill:#F7F7F7;}
	.st4{fill:#162249;}
	.st5{fill:#985B25;}
	.st6{fill:#F79521;}
	.st7{fill:#ED2826;}
	.st8{fill:#25BEC5;}
	.st9{fill:#FBAA19;}
	.st10{fill:#72BF44;}
	.st11{fill:#F3787A;}
	.st12{fill:#96D7DF;}
	.st13{fill:#FCD18B;}
	.st14{fill:#B4D88B;}
	.st15{fill:#0A6CAA;}
	.st16{fill:#48AEE0;}
	.st17{fill:#FFFFFF;}
</style>
<g>
	<g>
		<path class="st0" d="M83.4,42.8C83.7,31.5,72.7,18,72.2,17.4c-3.5-4.2-8.4-4-9.1-4h-9.4c-0.9-5.7-6-10.1-11.9-10.1
			s-11,4.4-11.9,10.1h-9.5c-0.7-0.1-5.7-0.2-9.1,4C10.7,18-0.3,31.5,0,42.7c0,0.3,0,0.6,0,0.8c0,1.6,0.2,3.2,0.6,4.7
			c1.5,5,6.7,8.4,12.7,8.4c0.1,0,0.2,0,0.3,0c6-0.1,13.3-3.7,16.3-13.5h0.8c1.6,0,2.8-1.3,2.9-2.8l0.2-1.8h0.4l1.2,3.1
			c0.3,0.9,1.2,1.4,2.1,1.4h2.9c0.9,0,1.6-0.7,1.8-1.6l0.1-0.5l0.1,0.4c0.3,0.9,1.1,1.5,2.1,1.5h2.8c1,0,1.8-0.7,2-1.6l0.1-0.4
			c0.3,1.4,1.5,2.5,3,2.4h1.3C56.7,53,64,56.6,70,56.7h0.3c6,0,11.2-3.5,12.7-8.4c0.4-1.4,0.6-3,0.6-4.5
			C83.4,43.3,83.4,42.9,83.4,42.8z"/>
		<path class="st1" d="M70.8,20.1c-3.1-3.8-7.7-3.4-7.7-3.4H20.3c0,0-4.6-0.4-7.7,3.4S-0.6,37.8,2.3,47.6s21.8,11.3,26.3-6.4h2.1
			c0.6,0,1.2-0.5,1.2-1.2l0.3-3c0-0.3,0.3-0.4,0.5-0.4H35c0.3,0,0.4,0.1,0.6,0.4l1.3,3.3c0.2,0.5,0.7,0.8,1.3,0.8h1.6
			c0.4,0,0.8-0.3,0.8-0.8l0.8-7.1c0-0.1,0.2-0.1,0.2,0l2.4,6.9c0,0.5,0.5,0.9,1,0.9h1.5c0.6,0,1-0.4,1.1-0.9l1.8-8.9
			c0-0.1,0.2-0.1,0.2,0l1.4,9.1c0.1,0.6,0.6,1.1,1.2,1l2.6-0.1c4.5,17.6,23.4,16.1,26.3,6.4C84,37.8,74,23.9,70.8,20.1z M32.2,32.7
			l0.7-4.8l1.6,4.8H32.2z M52,20.4h-3.7l-3,12.8l-4.2-12.8h-1.4l-2.1,11.2l-4-11.2h-2.2l-2,9.6l0.9-10.8H53L54,30L52,20.4z"/>
		<path class="st2" d="M70.8,19.5c-3.1-3.8-7.7-3.4-7.7-3.4H20.3c0,0-4.6-0.4-7.7,3.4S-0.6,37.2,2.3,47s21.8,11.3,26.3-6.4h2.1
			c0.6,0,1.2-0.5,1.2-1.2l0.3-3c0-0.3,0.3-0.4,0.5-0.4H35c0.3,0,0.4,0.1,0.6,0.4l1.3,3.3c0.2,0.5,0.7,0.8,1.3,0.8h1.6
			c0.4,0,0.8-0.3,0.8-0.8l0.8-7.1c0-0.1,0.2-0.1,0.2,0l2.4,6.9c0.2,0.5,0.7,0.9,1.2,0.9h1.5c0.6,0,1-0.4,1.1-0.9l1.8-8.9
			c0-0.1,0.2-0.1,0.2,0l1.4,9.1c0.1,0.6,0.6,1.1,1.2,1l2.6-0.1c4.5,17.6,23.4,16.1,26.3,6.4C84,37.2,74,23.3,70.8,19.5z M32.2,32.1
			l0.7-4.8l1.6,4.8H32.2z M52,19.8h-3.7l-3,12.8l-4.2-12.8h-1.4l-2,11.2l-4-11.2h-2.2l-2,9.6l0.9-10.8H53l1,10.7L52,19.8z"/>
		<path class="st3" d="M70.8,18.6c-3.1-3.8-7.7-3.4-7.7-3.4H20.3c0,0-4.6-0.4-7.7,3.4S-0.6,36.2,2.3,46s21.8,11.3,26.3-6.4h2.1
			c0.6,0,1.2-0.5,1.2-1.2l0.3-3c0-0.3,0.3-0.4,0.5-0.4H35c0.3,0,0.4,0.1,0.6,0.4l1.3,3.3c0.2,0.5,0.7,0.8,1.3,0.8h1.6
			c0.4,0,0.8-0.3,0.8-0.8l0.8-7.1c0-0.1,0.2-0.1,0.2,0l2.4,6.9c0.2,0.5,0.7,0.9,1.2,0.9h1.5c0.6,0,1-0.4,1.1-0.9l1.8-8.9
			c0-0.1,0.2-0.1,0.2,0l1.4,9c0.1,0.6,0.6,1.1,1.2,1l2.6-0.1c4.5,17.6,23.4,16.1,26.3,6.4C84,36.2,74,22.4,70.8,18.6z M32.2,31.2
			l0.7-4.8l1.6,4.8H32.2z M52,18.8h-3.7l-3,12.8l-4.2-12.8h-1.4l-2,11.2l-4-11.2h-2.2l-2,9.6l0.9-10.8H53l1,10.7L52,18.8z"/>
		<path class="st0" d="M23.4,25.9c-0.3-0.3-0.6-0.4-0.9-0.4h-2.1l0.3-2.7c0-0.4-0.1-0.7-0.3-0.9c-0.3-0.3-0.6-0.4-0.9-0.4h-1.8
			c-0.7,0-1.2,0.5-1.3,1.2l-0.3,3h-2.4c-0.6,0-1.2,0.5-1.3,1.1l-0.2,1.7c-0.1,0.4,0.1,0.8,0.3,1c0.3,0.3,0.6,0.4,0.9,0.4h2.2
			l-0.3,2.6c0,0.4,0.1,0.7,0.3,0.9c0.3,0.3,0.6,0.4,0.9,0.4h1.8c0.7,0,1.2-0.5,1.3-1.2l0.3-2.8h2.3c0.6,0,1.2-0.5,1.3-1.1l0.2-1.7
			C23.8,26.6,23.6,26.2,23.4,25.9z"/>
		<g>
			<path class="st0" d="M65.4,26.3c1.2-0.4,1.9-1.8,1.4-3.2c-0.2-0.6-0.6-1.2-1.1-1.6c-0.6-0.4-1.2-0.4-1.8-0.3
				c-1.2,0.4-1.9,1.8-1.4,3.2c0.2,0.6,0.6,1.2,1.1,1.6c0.4,0.3,0.8,0.4,1.2,0.4C65,26.3,65.2,26.3,65.4,26.3z"/>
			<path class="st0" d="M67,29.8L67,29.8c-0.6-0.4-1.2-0.4-1.8-0.3c-1.2,0.4-1.9,1.8-1.4,3.2c0.2,0.6,0.6,1.2,1.1,1.6
				c0.4,0.3,0.8,0.4,1.2,0.4c0.2,0,0.4-0.1,0.6-0.1c1.2-0.4,1.9-1.8,1.4-3.2C68,30.7,67.6,30.2,67,29.8z"/>
			<path class="st0" d="M71.1,26.8c-0.2-0.6-0.6-1.2-1.1-1.6c-0.6-0.4-1.2-0.4-1.8-0.3c-1.2,0.4-1.9,1.8-1.4,3.2
				c0.2,0.6,0.6,1.2,1.1,1.6c0.4,0.3,0.8,0.4,1.2,0.4c0.2,0,0.4-0.1,0.6-0.1C70.9,29.6,71.5,28.1,71.1,26.8z"/>
			<path class="st0" d="M62.4,25.5c-0.5-0.4-1.1-0.6-1.6-0.4c-0.6,0.1-1.2,0.4-1.6,1c-0.4,0.6-0.5,1.2-0.4,1.9
				c0.1,1.3,1.2,2.3,2.4,2.3c0.1,0,0.2,0,0.3,0c1.3-0.2,2.2-1.4,2-2.9C63.3,26.6,62.9,25.9,62.4,25.5z"/>
		</g>
		<g>
			<path class="st4" d="M7.2,29.2c-0.1,2.1-0.1,4.3,0.2,6.4c0.2,1,0.4,2.1,0.9,3c0.4,0.9,1.1,1.8,1.9,2.3s1.8,0.8,2.8,0.8
				s2-0.3,2.8-0.8c0.9-0.6,1.6-1.3,2.3-2.1c0.6-0.8,1.2-1.8,1.7-2.7c-0.3,1.1-0.8,2.1-1.3,3s-1.3,1.8-2.3,2.5
				c-0.9,0.7-2.1,1.1-3.2,1.1c-0.6,0-1.1-0.1-1.7-0.2c-0.6-0.1-1.1-0.4-1.6-0.7c-1-0.6-1.7-1.6-2.1-2.7C7.2,38,6.9,37,6.8,35.8
				c-0.1-1.1-0.1-2.2,0-3.3C6.7,31.3,6.9,30.2,7.2,29.2z"/>
			<path d="M7,30.7c0,0.9,0,1.9,0.1,2.8c0.1,0.9,0.3,1.9,0.5,2.8c0.5,1.8,1.6,3.3,3.2,4c0.4,0.2,0.8,0.3,1.3,0.4
				c0.4,0.1,0.9,0.1,1.3,0.1c0.9,0,1.8-0.3,2.5-0.7c0.8-0.4,1.5-1.1,2.1-1.8c0.6-0.7,1.1-1.5,1.6-2.3c-0.3,0.9-0.7,1.8-1.3,2.6
				c-0.6,0.8-1.3,1.6-2.1,2.1c-0.8,0.6-1.8,0.9-2.9,1c-0.5,0.1-1,0-1.5-0.1s-1-0.2-1.5-0.4c-0.9-0.4-1.8-1.1-2.4-2
				c-0.6-0.8-0.9-1.8-1.2-2.8c-0.2-0.9-0.3-2-0.3-2.9C6.7,32.6,6.7,31.5,7,30.7z"/>
			<path class="st2" d="M7.3,29c-0.1,2,0,3.8,0.4,5.7c0.2,0.9,0.5,1.8,0.9,2.6s1.1,1.4,1.8,1.9c0.4,0.2,0.8,0.4,1.2,0.5
				s0.9,0.2,1.3,0.2c0.9,0.1,1.8-0.1,2.6-0.4c1.7-0.6,3.1-2,4.2-3.7c-0.3,0.9-0.8,1.8-1.4,2.5c-0.6,0.8-1.4,1.4-2.4,1.8
				c-0.9,0.4-2,0.6-3,0.6c-0.5,0-1-0.1-1.5-0.2c-0.5-0.1-1-0.3-1.4-0.6c-0.9-0.5-1.6-1.4-2.1-2.3c-0.5-0.9-0.8-1.9-0.9-2.9
				s-0.2-2-0.1-3C6.9,30.9,7,29.9,7.3,29z"/>
		</g>
		<g>
			<path class="st4" d="M74.8,29.2c0.1,2.1,0.1,4.3-0.2,6.4c-0.2,1-0.4,2.1-0.9,3c-0.4,0.9-1.1,1.8-1.9,2.3S70,41.6,69,41.6
				s-2-0.3-2.8-0.8c-0.9-0.6-1.6-1.3-2.3-2.1c-0.6-0.8-1.2-1.8-1.7-2.7c0.3,1.1,0.8,2.1,1.3,3s1.3,1.8,2.3,2.5
				c0.9,0.7,2.1,1.1,3.2,1.1c0.6,0,1.1-0.1,1.7-0.2c0.6-0.1,1.1-0.4,1.6-0.7c1-0.6,1.7-1.6,2.1-2.7c0.4-1.1,0.7-2.1,0.8-3.3
				c0.1-1.1,0.1-2.2,0-3.3C75.3,31.3,75.1,30.2,74.8,29.2z"/>
			<path d="M75,30.7c0,0.9,0,1.9-0.1,2.8c-0.1,0.9-0.3,1.9-0.5,2.8c-0.5,1.8-1.6,3.3-3.2,4c-0.4,0.2-0.8,0.3-1.3,0.4
				s-0.9,0.1-1.3,0.1c-0.9,0-1.8-0.3-2.5-0.7c-0.8-0.4-1.5-1.1-2.1-1.8s-1.1-1.5-1.6-2.3c0.3,0.9,0.7,1.8,1.3,2.6
				c0.6,0.8,1.3,1.6,2.1,2.1c0.8,0.6,1.8,0.9,2.9,1c0.5,0.1,1,0,1.5-0.1s1-0.2,1.5-0.4c0.9-0.4,1.8-1.1,2.4-2
				c0.6-0.8,0.9-1.8,1.2-2.8c0.2-0.9,0.3-2,0.3-2.9C75.3,32.6,75.2,31.5,75,30.7z"/>
			<path class="st2" d="M74.8,29c0.1,2,0,3.8-0.4,5.7c-0.2,0.9-0.5,1.8-0.9,2.6s-1.1,1.4-1.8,1.9c-0.4,0.2-0.8,0.4-1.2,0.5
				c-0.4,0.1-0.9,0.2-1.3,0.2c-0.9,0.1-1.8-0.1-2.6-0.4c-1.7-0.6-3.1-2-4.2-3.7c0.3,0.9,0.8,1.8,1.4,2.5c0.6,0.8,1.4,1.4,2.4,1.8
				c0.9,0.4,2,0.6,3,0.6c0.5,0,1-0.1,1.5-0.2c0.5-0.1,1-0.3,1.4-0.6c0.9-0.5,1.6-1.4,2.1-2.3c0.5-0.9,0.8-1.9,0.9-2.9s0.2-2,0.1-3
				C75.1,30.9,75,29.9,74.8,29z"/>
		</g>
		<circle class="st0" cx="41.7" cy="15.7" r="11.1"/>
		<g>
			<circle class="st5" cx="41.7" cy="15" r="10.3"/>
			<circle class="st6" cx="41.7" cy="14.7" r="9.1"/>
		</g>
		<g>
			<ellipse transform="matrix(0.9548 -0.2972 0.2972 0.9548 -4.1264 20.2729)" class="st7" cx="64.6" cy="23.7" rx="1.7" ry="2"/>
			<ellipse transform="matrix(0.9548 -0.2972 0.2972 0.9548 -6.4935 21.0583)" class="st8" cx="66" cy="31.9" rx="1.7" ry="2"/>
			<ellipse transform="matrix(0.9548 -0.2972 0.2972 0.9548 -5.0098 21.6799)" class="st9" cx="68.8" cy="27.3" rx="1.7" ry="2"/>
			<ellipse transform="matrix(0.9928 -0.1197 0.1197 0.9928 -2.8538 7.4992)" class="st10" cx="61" cy="27.5" rx="1.7" ry="2"/>
			<path class="st11" d="M63.8,22.4c0.9-0.3,1.9,0.3,2.2,1.3c0.1,0.4,0.1,0.9,0,1.3c0.4-0.4,0.4-1.1,0.3-1.8c-0.3-1-1.3-1.6-2.2-1.3
				c-0.5,0.1-0.9,0.6-1,1.1C63.2,22.7,63.5,22.5,63.8,22.4z"/>
			<path class="st12" d="M67.6,31.4c-0.3-1-1.3-1.6-2.2-1.3c-0.6,0.2-0.9,0.7-1.1,1.3c0.2-0.3,0.5-0.6,0.9-0.7
				c0.9-0.3,1.9,0.3,2.2,1.3c0.1,0.4,0.1,0.7,0.1,1.1C67.7,32.5,67.7,31.9,67.6,31.4z"/>
			<path class="st13" d="M68.2,26.1c0.9-0.3,1.9,0.3,2.2,1.3c0.1,0.3,0.1,0.5,0.1,0.7c0.1-0.4,0.1-0.8,0-1.3c-0.3-1-1.3-1.6-2.2-1.3
				c-0.7,0.2-1.1,0.9-1.1,1.6C67.3,26.6,67.7,26.2,68.2,26.1z"/>
			<path class="st14" d="M62.7,27.3c-0.1-1.1-1-1.8-1.9-1.7c-0.9,0.1-1.6,1.1-1.4,2.1l0,0c0.1-0.8,0.7-1.5,1.4-1.6
				c0.9-0.1,1.8,0.6,1.9,1.7C62.7,27.6,62.7,27.5,62.7,27.3z"/>
		</g>
		<path class="st15" d="M22.2,25.9h-2.8l0.3-3.4c0.1-0.4-0.3-0.7-0.6-0.7h-1.8c-0.3,0-0.6,0.3-0.6,0.6l-0.3,3.5h-3
			c-0.3,0-0.6,0.3-0.6,0.6l-0.3,1.7c-0.1,0.4,0.3,0.7,0.6,0.7h3l-0.3,3.3c-0.1,0.4,0.3,0.7,0.6,0.7h1.8c0.3,0,0.6-0.3,0.6-0.6
			l0.3-3.5h2.8c0.3,0,0.6-0.3,0.6-0.6l0.2-1.7C22.9,26.2,22.6,25.9,22.2,25.9z"/>
		<g>
			<path class="st16" d="M16.8,25.8L16.8,25.8c-0.1,0-0.2-0.1-0.2-0.2l0.3-3.1c0-0.3,0.3-0.6,0.7-0.6h1.3c0.1,0,0.2,0.1,0.2,0.2
				s-0.1,0.1-0.2,0.1h-1.3c-0.2,0-0.3,0.1-0.3,0.3L17,25.6C16.9,25.7,16.9,25.8,16.8,25.8z"/>
		</g>
		<g>
			<path class="st16" d="M22.2,26.4h-2.7c-0.1,0-0.2-0.1-0.2-0.2s0.1-0.2,0.2-0.2h2.7c0.1,0,0.2,0.1,0.2,0.2
				C22.4,26.4,22.3,26.4,22.2,26.4z"/>
		</g>
		<g>
			<path class="st16" d="M16,26.4h-2.8c-0.1,0-0.2-0.1-0.2-0.2s0.1-0.2,0.2-0.2h2.7c0.1,0,0.2,0.1,0.2,0.2
				C16.1,26.4,16.1,26.4,16,26.4z"/>
		</g>
		<g id="XMLID_868_">
			<path class="st17" d="M45.1,15.6c-0.1,0-0.1-0.1,0.1-0.1c0.6,0.1,1.9-0.1,2.5-1.5l0,0c0.5-1.3-0.1-2.7-1.4-3.2l-0.4-0.2l0.8-1.9
				l-1.2-0.5l-0.8,2l-1.4-0.6l0.8-2l-1.2-0.5l-0.8,2l-3-1.2l-0.6,1.4l1.1,0.4c0.2,0.1,0.3,0.3,0.2,0.4l-2.5,6.2
				c-0.1,0.2-0.3,0.3-0.4,0.2l-1.1-0.4l-0.6,1.4l3,1.2l-0.8,1.9l1.2,0.5l0.8-1.9l1.4,0.6L40,21.7l1.2,0.5l0.8-1.9l0.8,0.3
				c1.4,0.6,3-0.1,3.7-1.6l0,0C46.9,17.8,46.3,16.3,45.1,15.6z M44,11.5c0.7,0.3,0.9,1,0.7,1.6v0.1c-0.3,0.7-1,0.9-1.6,0.7l-1.3-0.5
				l0.9-2.4L44,11.5L44,11.5z M43.2,17.6c-0.3,0.8-1.3,1.2-2,0.9L39.9,18l1.3-3.1l1.3,0.5c0.8,0.3,1.2,1.3,0.9,2L43.2,17.6z"/>
		</g>
	</g>
	<g>
		<path class="st17" d="M92.2,25c0-1.4,1.1-2.6,2.6-2.6h4.5c0.9,0,1.7,0.1,2.5,0.3s1.4,0.5,2,0.9c0.5,0.4,0.9,0.9,1.3,1.5
			c0.3,0.6,0.4,1.3,0.4,2.1c0,0.6-0.1,1.1-0.2,1.4c-0.1,0.4-0.3,0.8-0.4,1c-0.2,0.3-0.4,0.6-0.7,0.8c0.4,0.3,0.8,0.6,1.1,0.9
			c0.3,0.3,0.5,0.8,0.8,1.3s0.3,1.1,0.3,2s-0.1,1.6-0.4,2.3s-0.8,1.3-1.3,1.8c-0.6,0.5-1.3,0.9-2.1,1.1s-1.8,0.4-2.8,0.4H95
			c-1.4,0-2.6-1.1-2.6-2.6L92.2,25L92.2,25z M99.7,27.9c0-0.8-0.4-1.3-1.3-1.3h-0.6v2.5h0.6C99.3,29.2,99.7,28.7,99.7,27.9z
			 M98.4,36.2c1.4,0,2.1-0.5,2.1-1.6S99.8,33,98.4,33h-0.6v3.1L98.4,36.2L98.4,36.2z"/>
		<path class="st17" d="M109.4,22.4h3.1c0.8,0,1.5,0.7,1.5,1.5V39c0,0.8-0.7,1.5-1.5,1.5h-3.1c-0.8,0-1.5-0.7-1.5-1.5V23.9
			C107.9,23.1,108.5,22.4,109.4,22.4z"/>
		<path class="st17" d="M118.8,27.2h-2.3c-0.6,0-1-0.4-1-1v-2.6c0-0.6,0.4-1,1-1H127c0.6,0,1,0.4,1,1v2.6c0,0.6-0.4,1-1,1h-2.3v12.3
			c0,0.6-0.4,1-1,1h-3.9c-0.6,0-1-0.4-1-1L118.8,27.2L118.8,27.2z"/>
		<path class="st17" d="M141.1,26.9c-0.4,0.6-1.1,0.8-1.8,0.6c-0.1,0-0.1-0.1-0.3-0.1c-0.5-0.1-0.9-0.3-1.4-0.3s-1,0.1-1.4,0.3
			s-0.8,0.4-1.1,0.8c-0.3,0.3-0.6,0.8-0.8,1.2c-0.2,0.4-0.3,0.9-0.3,1.5s0.1,1.1,0.3,1.5s0.4,0.9,0.8,1.2c0.3,0.3,0.8,0.6,1.2,0.8
			s0.9,0.3,1.4,0.3c0.6,0,1.2-0.1,1.7-0.4s0.9-0.6,1.3-1.1h-0.5c-0.6,0-1.1-0.5-1.1-1.1v-1.6c0-0.6,0.5-1.1,1.1-1.1h4.8
			c0.6,0,1.1,0.5,1.1,1.1v3.7c0,0.9-0.3,1.8-0.9,2.5c-0.2,0.3-0.4,0.5-0.6,0.8c-0.6,0.6-1.2,1.1-2,1.6c-0.7,0.4-1.5,0.8-2.3,1
			c-0.8,0.3-1.7,0.4-2.6,0.4c-1.3,0-2.5-0.3-3.7-0.8c-1.1-0.5-2.1-1.1-3-2c-0.9-0.8-1.5-1.8-2-3c-0.5-1.1-0.8-2.4-0.8-3.7
			s0.3-2.5,0.7-3.7c0.4-1.1,1.1-2.1,2-3c0.8-0.9,1.8-1.5,2.9-2c1.1-0.5,2.3-0.8,3.7-0.8c1,0,1.9,0.1,2.6,0.3
			c0.8,0.2,1.4,0.4,1.9,0.7l0,0c0.8,0.4,1.1,1.4,0.6,2.2L141.1,26.9z"/>
		<path class="st17" d="M153.8,22.4h2.6c0.5,0,1,0.3,1.2,0.8l5.8,15.4c0.3,0.9-0.3,1.9-1.3,1.9h-2.6c-0.6,0-1.1-0.4-1.3-0.9
			l-0.3-0.7h-5.5l-0.3,0.8c-0.2,0.5-0.7,0.8-1.2,0.8h-3c-0.9,0-1.5-0.9-1.2-1.8l5.9-15.5C152.7,22.7,153.3,22.4,153.8,22.4z
			 M156.3,34.9l-1.2-3.1l-1.2,3.1H156.3z"/>
		<path class="st17" d="M166.5,22.5h2.4c0.5,0,1,0.3,1.3,0.7l4.3,6.2l4.2-6.2c0.3-0.4,0.8-0.7,1.3-0.7h2.4c0.8,0,1.5,0.7,1.5,1.5v15
			c0,0.8-0.7,1.5-1.5,1.5h-2.7c-0.8,0-1.5-0.7-1.5-1.5v-5l-2.4,3.6c-0.6,0.9-1.9,0.9-2.5,0l-2.5-3.6v5c0,0.8-0.7,1.5-1.5,1.5h-2.7
			c-0.8,0-1.5-0.7-1.5-1.5V24C165,23.2,165.7,22.5,166.5,22.5z"/>
		<path class="st17" d="M187.5,22.3h8.4c0.6,0,1.1,0.5,1.1,1.1v2.5c0,0.6-0.5,1.1-1.1,1.1h-3.8v2h3.7c0.6,0,1.1,0.5,1.1,1.1v2.3
			c0,0.6-0.5,1.1-1.1,1.1h-3.7v2.1h4c0.6,0,1.1,0.5,1.1,1.1v2.5c0,0.6-0.5,1.1-1.1,1.1h-8.6c-0.6,0-1.1-0.5-1.1-1.1v-16
			C186.4,22.8,186.9,22.3,187.5,22.3z"/>
		<path class="st17" d="M213.4,29.2c0,1.3-0.2,2.3-0.6,3.2c-0.4,0.9-1,1.6-1.8,2.1s-1.6,0.9-2.6,1.2s-2.1,0.4-3.2,0.4v2.3
			c0,1.1-0.9,2.1-2.1,2.1h-1.6c-1.1,0-2.1-0.9-2.1-2.1v-14c0-1.1,0.9-2.1,2.1-2.1h3.7c1.1,0,2.2,0.1,3.2,0.4s1.9,0.6,2.6,1.2
			s1.3,1.3,1.8,2.1C213.2,27,213.4,28,213.4,29.2z M205.2,31.2h0.3c0.8,0,1.3-0.2,1.6-0.5c0.3-0.4,0.5-0.8,0.5-1.4s-0.2-1.1-0.5-1.4
			c-0.3-0.4-0.9-0.5-1.6-0.5h-0.3V31.2z"/>
		<path class="st17" d="M215.3,24.4c0-1.1,0.9-2.1,2.1-2.1h4.2c1.1,0,2.2,0.1,3.2,0.4s1.8,0.8,2.6,1.3c0.7,0.6,1.3,1.3,1.7,2.2
			c0.4,0.9,0.6,1.9,0.6,3c0,0.9-0.1,1.7-0.4,2.3c-0.3,0.6-0.5,1.1-0.8,1.6c-0.4,0.4-0.8,0.9-1.2,1.2l2.1,3.8c0.6,1-0.1,2.2-1.3,2.2
			h-3.4c-0.5,0-1-0.3-1.3-0.7l-2.3-3.8v3c0,0.9-0.7,1.6-1.6,1.6h-2.1c-1.1,0-2.1-0.9-2.1-2.1v-14l0,0V24.4z M221.1,31.2h0.3
			c0.7,0,1.3-0.1,1.8-0.4s0.7-0.8,0.7-1.6c0-0.7-0.3-1.3-0.7-1.6c-0.5-0.3-1.1-0.4-1.8-0.4h-0.3V31.2z"/>
		<path class="st17" d="M231.1,31c0-1.3,0.3-2.5,0.8-3.7c0.5-1.1,1.2-2.1,2-3c0.9-0.9,1.9-1.5,3-2s2.4-0.8,3.7-0.8s2.5,0.3,3.7,0.8
			c1.1,0.5,2.1,1.2,3,2c0.9,0.9,1.5,1.9,2,3s0.8,2.4,0.8,3.7c0,1.3-0.3,2.5-0.8,3.7c-0.5,1.1-1.2,2.1-2,3c-0.9,0.9-1.9,1.5-3,2
			s-2.4,0.8-3.7,0.8s-2.5-0.3-3.7-0.8c-1.1-0.5-2.1-1.2-3-2c-0.9-0.9-1.5-1.9-2-3C231.4,33.6,231.1,32.3,231.1,31z M236.8,31
			c0,0.5,0.1,1,0.3,1.4s0.4,0.9,0.8,1.2c0.3,0.3,0.8,0.6,1.2,0.8s0.9,0.3,1.4,0.3s1-0.1,1.4-0.3s0.9-0.4,1.2-0.8
			c0.3-0.3,0.6-0.8,0.8-1.2s0.3-0.9,0.3-1.4s-0.1-1-0.3-1.4s-0.4-0.9-0.8-1.2c-0.3-0.3-0.8-0.6-1.2-0.8c-0.4-0.2-0.9-0.3-1.4-0.3
			s-1,0.1-1.4,0.3c-0.4,0.2-0.9,0.4-1.2,0.8c-0.3,0.3-0.6,0.8-0.8,1.2C236.9,30,236.8,30.5,236.8,31z"/>
	</g>
</g>
</svg>
